<?xml version="1.0" encoding="UTF-8"?>
<!DOCTYPE svg PUBLIC "-//W3C//DTD SVG 1.1//EN" "http://www.w3.org/Graphics/SVG/1.1/DTD/svg11.dtd">
<!-- Creator: CorelDRAW 2020 (64 Bit) -->
<svg xmlns="http://www.w3.org/2000/svg" xml:space="preserve" width="11.9592mm" height="11.7756mm" version="1.1" style="shape-rendering:geometricPrecision; text-rendering:geometricPrecision; image-rendering:optimizeQuality; fill-rule:evenodd; clip-rule:evenodd"
viewBox="0 0 94.42 92.97"
 xmlns:xlink="http://www.w3.org/1999/xlink"
 xmlns:xodm="http://www.corel.com/coreldraw/odm/2003">
 <defs>
  <style type="text/css">
   <![CDATA[
    .str0 {stroke:#373435;stroke-width:1.58;stroke-miterlimit:22.9256}
    .fil0 {fill:#373435}
    .fil1 {fill:#FEFEFE;fill-rule:nonzero}
   ]]>
  </style>
 </defs>
 <g id="Camada_x0020_1">
  <metadata id="CorelCorpID_0Corel-Layer"/>
  <g id="_2992831386032">
   <ellipse class="fil0 str0" cx="46.84" cy="49.79" rx="42.12" ry="42.39"/>
   <path class="fil1" d="M47.21 -0c-26.07,0 -47.21,21.14 -47.21,47.21 0,20.86 13.53,38.56 32.29,44.8 2.36,0.44 3.12,-1.03 3.12,-2.27l0 -8.79c-13.13,2.86 -15.87,-5.57 -15.87,-5.57 -2.15,-5.46 -5.24,-6.91 -5.24,-6.91 -4.28,-2.93 0.33,-2.87 0.33,-2.87 4.74,0.33 7.24,4.87 7.24,4.87 4.21,7.21 11.04,5.13 13.74,3.92 0.42,-3.05 1.64,-5.14 3,-6.31 -10.48,-1.2 -21.51,-5.25 -21.51,-23.33 0,-5.16 1.85,-9.37 4.86,-12.67 -0.49,-1.19 -2.11,-6 0.46,-12.5 0,0 3.97,-1.27 12.99,4.84 3.76,-1.05 7.8,-1.57 11.81,-1.59 4.01,0.02 8.05,0.54 11.83,1.59 9.01,-6.11 12.97,-4.84 12.97,-4.84 2.57,6.5 0.95,11.31 0.46,12.5 3.03,3.31 4.86,7.52 4.86,12.67 0,18.13 -11.04,22.13 -21.56,23.3 1.69,1.46 3.24,4.34 3.24,8.74l0 12.96c0,1.26 0.75,2.73 3.15,2.27 18.75,-6.25 32.26,-23.94 32.26,-44.8 0,-26.07 -21.14,-47.21 -47.21,-47.21l0 0z"/>
  </g>
 </g>
</svg>
